<?xml version="1.0" standalone="no"?>
<!DOCTYPE svg PUBLIC "-//W3C//DTD SVG 1.1//EN" "http://www.w3.org/Graphics/SVG/1.1/DTD/svg11.dtd" >
<svg xmlns="http://www.w3.org/2000/svg" xmlns:xlink="http://www.w3.org/1999/xlink" version="1.1">
<metadata></metadata>
<defs>
<font id="fw_iconsregular" horiz-adv-x="1184" >
<font-face units-per-em="1000" ascent="800" descent="-200" />
<missing-glyph horiz-adv-x="463" />
<glyph horiz-adv-x="0" />
<glyph horiz-adv-x="0" />
<glyph horiz-adv-x="333" />
<glyph unicode="&#xa;" horiz-adv-x="0" />
<glyph unicode="&#xd;" horiz-adv-x="0" />
<glyph unicode=" "  horiz-adv-x="463" />
<glyph unicode="&#x09;" horiz-adv-x="463" />
<glyph unicode="&#xa0;" horiz-adv-x="463" />
<glyph unicode="&#x25fc;" horiz-adv-x="600" d="M0 0z" />
<glyph unicode="&#xe900;" horiz-adv-x="3657" d="M646 922q64 0 97.5 -33t33.5 -97v-223q0 -43 -15 -72t-44 -44t-72 -15h-108v-230q0 -15 -15 -15h-94q-15 0 -15 15v700h-1q0 14 14 14h219zM654 592v173q0 36 -37 36h-79v-245h79q37 0 37 36zM1147 921q64 0 97.5 -33.5t33.5 -97.5v-468q0 -43 -15 -72t-44 -44t-72 -15 h-102q-63 0 -96.5 33.5t-33.5 97.5v468q0 64 33.5 97.5t96.5 33.5h102zM1162 345v423q0 37 -37 37h-52q-37 0 -37 -37v-423q0 -36 37 -36h52q37 0 37 36zM1541 908v-702q0 -15 -15 -15h-94q-15 0 -15 15v702q0 14 15 14h94q15 0 15 -14zM2054 922q14 0 14 -14v-702 q0 -15 -14 -15h-91q-14 0 -16 13l-140 388h-5v-386q0 -15 -15 -15h-94q-15 0 -15 15v702q0 14 15 14h91q13 0 16 -12l140 -389h5v387q0 14 14 14h95zM2536 922q15 0 15 -14v-91q0 -14 -15 -14h-105v-595q0 -15 -15 -15h-94q-14 0 -14 15v593h-106q-14 0 -14 14v93 q0 14 14 14h334zM166 -124h-22v125h22v-125zM405 -86v87h24v-125h-22l-65 88v-88h-22v125h22zM574 -19v20h98v-20h-38v-105h-22v105h-38zM819 -126v127h85v-20h-63v-33h61v-20h-61v-34h63v-20h-85zM1151 -39q0 -16 -9 -25.5t-20 -10.5l30 -49h-27l-27 47h-22v-47h-21v125h54 q19 0 30.5 -11t11.5 -29zM1105 -57q22 0 22 20t-22 20h-31v-40h31zM1336 1h27l49 -125h-26l-9 23h-58l-9 -23h-25zM1327 -81h45l-24 60zM1608 -14q-20 0 -32 -12.5t-12 -32.5q0 -13 5.5 -23t15.5 -16.5t23 -6.5q21 0 30 19l19 -9q-19 -29 -51 -29q-28 -2 -46.5 16t-18.5 47 q0 28 18.5 46.5t46.5 18.5q34 0 51 -27l-19 -9q-9 18 -30 18zM1793 -19v20h98v-20h-39v-105h-21v105h-38zM2057 -124h-21v125h21v-125zM2262 -101l38 102h26l-49 -125h-29l-49 125h25zM2465 -126v127h86v-20h-64v-33h62v-20h-62v-34h64v-20h-86zM3006 924q91 0 139.5 -48 t49.5 -140v-311q0 -18 -8.5 -28.5t-28.5 -20.5l-288 -158q-18 -10 -18 -30v-115q0 -25 25 -25h142v54q0 26 25 26h125q25 0 25 -26v-201q0 -25 -25 -25h-471q-26 0 -26 25v386q0 13 3.5 21.5t10.5 15t21 12.5l312 169v192q0 18 -6.5 29.5t-18.5 17.5t-28 6h-63 q-53 0 -53 -53v-101q0 -22 -22 -22h-136q-22 0 -22 22v140q0 92 48 140t141 48h147zM3570 926q22 0 22 -22v-1007q0 -21 -22 -21h-136q-22 0 -22 21v830l-82 -11q-12 -2 -19.5 4.5t-7.5 18.5v127q0 25 26 27zM251 921q15 0 15 -15v-698q0 -15 -15 -15h-94q-15 0 -15 15v573 l-56 -7q-9 -2 -14.5 3t-5.5 13v89q0 17 18 20z" />
<glyph unicode="&#xe901;" horiz-adv-x="1058" d="M959 457q33 -19 33 -57t-33 -57l-794 -460q-33 -19 -66 -0.5t-33 57.5v920q0 38 33 57t66 0z" />
<glyph unicode="&#xe902;" horiz-adv-x="980" d="M849 926q27 0 46.5 -19t19.5 -47v-921q0 -27 -19.5 -46t-46.5 -19h-197q-27 0 -46.5 19t-19.5 46v921q0 28 19.5 47t46.5 19h197zM329 926q27 0 46.5 -19t19.5 -47v-921q0 -27 -19.5 -46t-46.5 -19h-197q-27 0 -46.5 19t-19.5 46v921q0 28 19.5 47t46.5 19h197z" />
<glyph unicode="&#xe903;" d="M1053 926q27 0 46.5 -19t19.5 -47v-921q0 -27 -19.5 -46t-46.5 -19h-921q-27 0 -46.5 19t-19.5 46v921q0 28 19.5 47t46.5 19h921z" />
<glyph unicode="&#xe904;" d="M1020 926q41 0 70 -29t29 -70v-855q0 -40 -29 -69t-70 -29h-855q-41 0 -70 29t-29 69v855q0 41 29 70t70 29h855zM1053 -28v855q0 14 -10 23.5t-23 9.5h-855q-7 0 -13 -2.5t-10.5 -7t-7 -10.5t-2.5 -13v-855q0 -13 9.5 -23t23.5 -10h855q9 0 16.5 4.5t12 12t4.5 16.5z " />
<glyph unicode="&#xe905;" d="M836 600q19 19 46.5 19t46.5 -19t19 -46.5t-19 -46.5l-374 -375q-20 -19 -47 -19t-46 19l-164 164q-20 20 -20 47t19.5 46.5t46.5 19.5t47 -20l117 -117zM1020 926q41 0 70 -29t29 -70v-855q0 -40 -29 -69t-70 -29h-855q-41 0 -70 29t-29 69v855q0 41 29 70t70 29h855z M1053 -28v855q0 14 -10 23.5t-23 9.5h-855q-7 0 -13 -2.5t-10.5 -7t-7 -10.5t-2.5 -13v-855q0 -13 9.5 -23t23.5 -10h855q9 0 16.5 4.5t12 12t4.5 16.5z" />
<glyph unicode="&#xe906;" d="M1020 926q41 0 70 -29t29 -70v-855q0 -40 -29 -69t-70 -29h-855q-41 0 -70 29t-29 69v855q0 41 29 70t70 29h855zM929 507q19 19 19 46.5t-19 46.5t-46.5 19t-46.5 -19l-328 -328l-117 117q-20 20 -47 20t-46.5 -19.5t-19.5 -46.5t20 -47l164 -164q19 -19 46 -19t47 19z " />
<glyph unicode="&#xe907;" horiz-adv-x="1579" d="M1447 926q28 0 47 -19t19 -47v-321q0 -18 -8.5 -33t-24 -24t-33.5 -9h-526q-27 0 -46.5 19.5t-19.5 46.5v321q0 28 19.5 47t46.5 19h526zM1382 605v190h-395v-190h395zM658 926q18 0 33 -9t24 -24t9 -33v-321q0 -27 -19.5 -46.5t-46.5 -19.5h-526q-27 0 -46.5 19.5 t-19.5 46.5v321q0 28 19.5 47t46.5 19h526zM592 605v190h-394v-190h394zM1447 327q28 0 47 -19.5t19 -46.5v-322q0 -27 -19 -46t-47 -19h-526q-27 0 -46.5 19t-19.5 46v322q0 18 9 33t24 24t33 9h526zM1382 5v190h-395v-190h395zM658 327q18 0 33 -9t24 -24t9 -33v-322 q0 -27 -19.5 -46t-46.5 -19h-526q-27 0 -46.5 19t-19.5 46v322q0 27 19.5 46.5t46.5 19.5h526zM592 5v190h-394v-190h394z" />
<glyph unicode="&#xe908;" horiz-adv-x="1579" d="M527 713q-28 0 -47 19.5t-19 46.5t19 46.5t47 19.5h920q28 0 47 -19.5t19 -46.5t-19 -46.5t-47 -19.5h-920zM263 845q28 0 47 -19.5t19 -46.5t-19 -46.5t-47 -19.5h-131q-18 0 -33 9t-24 24t-9 33q0 27 19.5 46.5t46.5 19.5h131zM263 87q28 0 47 -19.5t19 -46.5 q0 -18 -8.5 -33t-24 -24t-33.5 -9h-131q-27 0 -46.5 19.5t-19.5 46.5t19.5 46.5t46.5 19.5h131zM1447 87q28 0 47 -19.5t19 -46.5t-19 -46.5t-47 -19.5h-920q-28 0 -47 19.5t-19 46.5t19 46.5t47 19.5h920zM263 466q18 0 33.5 -9t24 -24t8.5 -33q0 -27 -19 -46.5t-47 -19.5 h-131q-27 0 -46.5 19.5t-19.5 46.5t19.5 46.5t46.5 19.5h131zM1447 466q28 0 47 -19.5t19 -46.5q0 -18 -8.5 -33t-24 -24t-33.5 -9h-920q-28 0 -47 19.5t-19 46.5t19 46.5t47 19.5h920z" />
<glyph unicode="&#xe909;" horiz-adv-x="1052" d="M1033 756q20 -19 20 -46t-19.5 -46.5t-46.5 -19.5t-47 19l-12 13l-33 -33q106 -141 90 -318q-10 -109 -67 -200.5t-149 -149t-200 -67.5q-106 -9 -203 28t-165.5 105.5t-105 165.5t-27.5 202q15 165 133 283.5t283 133.5q177 15 318 -90l33 33l-12 12q-19 19 -19 46.5 t19 46.5t46.5 19t46.5 -19zM526.5 38q89.5 0 165 44t119.5 120t44 165t-44 165t-119.5 120t-165 44t-165 -44t-119.5 -120t-44 -165t44 -165t119.5 -120t165 -44zM652 359q13 0 22.5 -9.5t9.5 -23t-9.5 -23.5t-22.5 -10h-125q-14 0 -23.5 10t-9.5 23v230q0 14 9.5 23.5 t23 9.5t23 -9.5t9.5 -23.5v-197h93z" />
<glyph unicode="&#xe90a;" horiz-adv-x="1053" d="M526.5 827q93.5 0 179 -36.5t147 -98t98 -146.5t36.5 -178.5t-36.5 -179t-98 -147t-147 -98t-179 -36.5t-178.5 36.5t-147 98t-98.5 147t-36.5 179t36.5 178.5t98.5 146.5t147 98t178.5 36.5zM527 38q66 0 127 26t105 70t70 105t26 128q0 89 -44 165t-119.5 120t-165 44 t-165 -44t-119.5 -120t-44 -165t44 -165t119.5 -120t165.5 -44zM652 359q8 0 16 -4.5t12 -12t4 -16.5q0 -13 -9.5 -23t-22.5 -10h-125q-14 0 -23.5 10t-9.5 23v230q0 7 2.5 13t7 10.5t10.5 7t13 2.5q13 0 22.5 -9.5t9.5 -23.5v-197h93z" />
<glyph unicode="&#xe90b;" d="M984 99q19 -19 19 -45.5t-19 -45.5t-45.5 -19t-45.5 19l-166 167q-120 -88 -270 -80q-98 6 -186.5 61.5t-143.5 144.5t-60 187q-5 91 28.5 174t92.5 142.5t142 92.5t174 29q59 -4 116.5 -26t105.5 -59t85.5 -84.5t59.5 -105t26 -116.5q9 -149 -79 -269zM481.5 226 q117.5 0 201 83.5t83.5 200.5q0 77 -38 142.5t-103.5 104t-142.5 38.5q-118 0 -201 -83.5t-83 -201t83 -201t200.5 -83.5zM1056.5 -3q25.5 0 44 -18t18.5 -43.5t-18.5 -43.5t-44 -18t-43.5 18t-18 43.5t18 43.5t43.5 18z" />
<glyph unicode="&#xe90c;" d="M1053 466q27 0 46.5 -19.5t19.5 -46.5t-19.5 -46.5t-46.5 -19.5h-395v-395q0 -17 -8.5 -32.5t-24 -24t-33.5 -8.5q-27 0 -46 19t-19 46v395h-395q-27 0 -46.5 19.5t-19.5 46.5t19.5 46.5t46.5 19.5h395v394q0 28 19 47t46.5 19t46.5 -19t19 -47v-394h395z" />
<glyph unicode="&#xe90d;" d="M1053 466q27 0 46.5 -19.5t19.5 -46.5t-19.5 -46.5t-46.5 -19.5h-921q-27 0 -46.5 19.5t-19.5 46.5t19.5 46.5t46.5 19.5h921z" />
<glyph unicode="&#xe90e;" d="M1099.5 700.5q19.5 -19.5 19.5 -46.5t-20 -46l-614 -614q-19 -19 -46 -19t-47 19l-307 307q-19 19 -19 46.5t19 46.5q13 12 30 16.5t34 0t29 -16.5l261 -261l567 568q20 19 47 19t46.5 -19.5z" />
<glyph unicode="&#xe90f;" d="M685 400l414 -414q20 -19 20 -46.5t-19.5 -46.5t-46.5 -19t-47 19l-414 414l-414 -414q-19 -19 -46 -19t-46.5 19t-19.5 46.5t19 46.5l414 414l-414 414q-19 19 -19 46.5t19.5 46.5t46.5 19t46 -19l414 -414l414 414q20 19 47 19t46.5 -19t19.5 -46.5t-20 -46.5z" />
<glyph unicode="&#xe910;" horiz-adv-x="1166" d="M1060 580.5q49 -56.5 39 -130.5l-59 -434q-6 -40 -29 -72.5t-58.5 -51t-75.5 -18.5h-317q-67 0 -114 46q-30 -46 -84 -46h-197q-41 0 -70 29t-29 69v437q0 41 29 70t70 29h197q17 0 33 -6v47q0 68 48 117l221 220q40 40 97.5 40t98 -40.5t40.5 -97.5t-41 -98l-53 -53h130 q75 0 124 -56.5zM395 -28v437q0 6 -1.5 11t-4.5 9t-7 7t-9 4.5t-11 1.5h-197q-14 0 -23.5 -9.5t-9.5 -23.5v-437q0 -9 4.5 -16.5t12 -11.5t16.5 -4h197q14 0 23.5 9.5t9.5 22.5zM1034 459q6 44 -23.5 78t-74.5 34h-210q-22 0 -30.5 20.5t7.5 35.5l110 110q21 21 21 51 t-21 51t-51.5 21t-51.5 -21l-220 -220q-29 -29 -29 -70v-511q0 -20 8 -38t21 -31.5t31.5 -21t38.5 -7.5h317q36 0 64 24t33 61z" />
<glyph unicode="&#xe911;" horiz-adv-x="1166" d="M245 508q17 0 33 -6.5t27 -18t17.5 -27t6.5 -32.5v-466q0 -23 -11 -42.5t-30.5 -30.5t-42.5 -11h-95q-35 0 -59.5 24.5t-24.5 59.5v466q0 35 24.5 59.5t59.5 24.5h95zM1060 580.5q49 -56.5 39 -130.5l-59 -434q-6 -40 -29 -72.5t-58.5 -51t-75.5 -18.5h-317 q-68 0 -116.5 48t-48.5 116v511q0 68 48 117l221 220q40 40 97.5 40t98 -40.5t40.5 -97.5t-41 -98l-53 -53h130q75 0 124 -56.5z" />
<glyph unicode="&#xe912;" horiz-adv-x="1166" d="M1099 350q10 -74 -39 -130.5t-124 -56.5h-130l53 -53q41 -41 41 -98t-40.5 -97.5t-98 -40.5t-97.5 40l-221 220q-48 48 -48 117v47q-16 -6 -33 -6h-197q-41 0 -70 29t-29 70v436q0 41 29 70t70 29h197q54 0 84 -46q47 46 114 46h317q61 0 107.5 -40.5t55.5 -101.5z M395 391v436q0 14 -9.5 23.5t-23.5 9.5h-197q-14 0 -23.5 -9.5t-9.5 -23.5v-436q0 -9 4.5 -16.5t12 -12t16.5 -4.5h197q14 0 23.5 9.5t9.5 23.5zM1010.5 262.5q29.5 33.5 23.5 78.5l-60 434q-5 36 -33 60.5t-64 24.5h-317q-41 0 -70 -28.5t-29 -69.5v-511q0 -41 29 -70 l220 -220q21 -22 51.5 -22t51.5 21.5t21 51.5t-21 51l-110 110q-16 15 -7.5 35.5t30.5 20.5h210q45 0 74.5 33.5z" />
<glyph unicode="&#xe913;" horiz-adv-x="1166" d="M245 926q35 0 59.5 -24.5t24.5 -59.5v-466q0 -35 -24.5 -59.5t-59.5 -24.5h-95q-35 0 -59.5 24.5t-24.5 59.5v466q0 35 24.5 59.5t59.5 24.5h95zM1099 350q10 -74 -39 -130.5t-124 -56.5h-130l53 -53q41 -41 41 -98t-40.5 -97.5t-98 -40.5t-97.5 40l-221 220 q-48 48 -48 117v511q0 68 48.5 116t116.5 48h317q40 0 75.5 -18.5t58.5 -51t29 -72.5z" />
<glyph unicode="&#xe914;" horiz-adv-x="1236" d="M1140 549q21 -2 27.5 -22.5t-9.5 -34.5l-264 -234l76 -344q5 -21 -12.5 -34t-35.5 -2l-304 179l-304 -179q-19 -11 -36.5 2t-12.5 34l76 344l-264 234q-16 14 -9.5 34.5t28.5 22.5l351 34l141 323q8 20 29.5 20t30.5 -20l141 -323z" />
<glyph unicode="&#xe915;" horiz-adv-x="1236" d="M1140 549q21 -2 27.5 -22.5t-9.5 -34.5l-264 -234l76 -344q5 -21 -12.5 -34t-35.5 -2l-304 179l-304 -179q-19 -11 -36.5 2t-12.5 34l76 344l-264 234q-16 14 -9.5 34.5t28.5 22.5l351 34l141 323q8 20 29.5 20t30.5 -20l141 -323zM822 282l236 209l-314 30l-126 290 v-678l272 -160z" />
<glyph unicode="&#xe916;" horiz-adv-x="1236" d="M1140 549q21 -2 27.5 -22.5t-9.5 -34.5l-264 -234l76 -344q5 -21 -12.5 -34t-35.5 -2l-304 179l-304 -179q-19 -11 -36.5 2t-12.5 34l76 344l-264 234q-16 14 -9.5 34.5t28.5 22.5l351 34l141 323q8 20 29.5 20t30.5 -20l141 -323zM822 282l236 209l-314 30l-126 290 l-126 -290l-315 -30l237 -209l-68 -309l272 160l272 -160z" />
<glyph unicode="&#xe917;" horiz-adv-x="330" d="M165 301q-41 0 -70 29t-29 70t29 70t70 29t69.5 -29t28.5 -70t-28.5 -70t-69.5 -29zM165 729q-27 0 -49.5 13t-36 36t-13.5 49q0 41 29 70t70 29t69.5 -29t28.5 -69.5t-28.5 -69.5t-69.5 -29zM165 -126q-27 0 -49.5 13t-36 36t-13.5 49q0 41 29 70t70 29t69.5 -29 t28.5 -69.5t-28.5 -69.5t-69.5 -29z" />
<glyph unicode="&#xe918;" d="M1020 301q-41 0 -70 29t-29 70t29 70t70 29t70 -29t29 -70t-29 -70t-70 -29zM592 301q-41 0 -69.5 29t-28.5 70t28.5 70t69.5 29t70 -29t29 -70t-29 -70t-70 -29zM165 301q-41 0 -70 29t-29 70t29 70t70 29t69.5 -29t28.5 -70t-28.5 -70t-69.5 -29z" />
<glyph unicode="&#xe919;" horiz-adv-x="937" d="M852 615q19 -19 19 -46.5t-19 -46.5l-337 -337q-19 -19 -46.5 -19t-46.5 19l-337 337q-19 19 -19 46.5t19.5 46.5t46.5 19t46 -19l291 -290l290 290q19 19 46.5 19t46.5 -19z" />
<glyph unicode="&#xe91a;" horiz-adv-x="937" d="M852 278q19 -19 19 -46.5t-19 -46.5t-46.5 -19t-46.5 19l-290 290l-291 -290q-19 -19 -46 -19t-46.5 19t-19.5 46.5t19 46.5l337 337q19 19 46.5 19t46.5 -19z" />
<glyph unicode="&#xe91b;" horiz-adv-x="601" d="M225 400l290 -290q19 -20 19 -47t-19 -46.5t-46.5 -19.5t-46.5 20l-337 336q-19 20 -19 47t19 46l337 337q19 19 46.5 19t46.5 -19t19 -46.5t-19 -46.5z" />
<glyph unicode="&#xe91c;" horiz-adv-x="601" d="M515 446q19 -19 19 -46t-19 -47l-337 -336q-19 -20 -46 -20t-46.5 19.5t-19.5 46.5t19 47l291 290l-291 290q-19 19 -19 46.5t19.5 46.5t46.5 19t46 -19z" />
<glyph unicode="&#xe91d;" horiz-adv-x="937" d="M759 425q19 20 46.5 20t46.5 -19.5t19 -46.5t-19 -47l-337 -336q-19 -20 -46.5 -20t-46.5 20l-337 336q-19 20 -19 47t19.5 46.5t46.5 19.5t46 -20l291 -290zM422 374l-337 337q-19 19 -19 46.5t19 46.5q10 10 22 15t24.5 5t25 -5t21.5 -15l291 -290l290 290 q19 19 46.5 19t46.5 -19t19 -46.5t-19 -46.5l-337 -337q-19 -19 -46.5 -19t-46.5 19z" />
<glyph unicode="&#xe91e;" horiz-adv-x="937" d="M515 425l337 -336q19 -20 19 -47t-19 -46.5t-46.5 -19.5t-46.5 20l-290 290l-291 -290q-19 -20 -46 -20t-46.5 19.5t-19.5 46.5t19 47l337 336q19 20 46.5 20t46.5 -20zM178 374q-19 -19 -46 -19t-46.5 19.5t-19.5 46.5t19 46l337 337q19 20 46.5 20t46.5 -20l337 -337 q19 -19 19 -46t-19 -46.5t-46.5 -19.5t-46.5 19l-290 291z" />
<glyph unicode="&#xe91f;" horiz-adv-x="979" d="M225 400l290 -290q19 -20 19 -47t-19 -46.5t-46.5 -19.5t-46.5 20l-337 336q-19 20 -19 47t19 46l337 337q19 19 46.5 19t46.5 -19t19 -46.5t-19 -46.5zM604 400l290 -290q19 -20 19 -47t-19 -46.5t-46.5 -19.5t-46.5 20l-337 336q-19 20 -19 47t19 46l337 337 q19 19 46.5 19t46.5 -19t19 -46.5t-19 -46.5z" />
<glyph unicode="&#xe920;" horiz-adv-x="979" d="M894 446q19 -19 19 -46t-19 -47l-337 -336q-19 -20 -46 -20t-46.5 19.5t-19.5 46.5t19 47l291 290l-291 290q-19 19 -19 46.5t19.5 46.5t46.5 19t46 -19zM534 400q0 -27 -19 -47l-337 -336q-19 -20 -46 -20t-46.5 19.5t-19.5 46.5t19 47l291 290l-291 290 q-19 19 -19 46.5t19.5 46.5t46.5 19t46 -19l337 -337q19 -19 19 -46z" />
<glyph unicode="&#xe921;" d="M407 582q-19 -19 -46 -19t-46.5 19t-19.5 46.5t19 46.5l229 228q19 23 49 23q28 0 47 -19l5 -5l226 -227q20 -19 20 -46.5t-19.5 -46.5t-46.5 -19t-47 19l-119 119v-446q0 -27 -19 -46.5t-46.5 -19.5t-46.5 19.5t-19 46.5v446zM1053 308q27 0 46.5 -19.5t19.5 -46.5v-303 q0 -27 -19.5 -46t-46.5 -19h-921q-27 0 -46.5 19t-19.5 46v303q0 27 19.5 46.5t46.5 19.5t46.5 -19.5t19.5 -46.5v-237h789v237q0 27 19.5 46.5t46.5 19.5z" />
<glyph unicode="&#xe922;" d="M1053 308q27 0 46.5 -19.5t19.5 -46.5v-303q0 -27 -19.5 -46t-46.5 -19h-921q-27 0 -46.5 19t-19.5 46v303q0 27 19.5 46.5t46.5 19.5t46.5 -19.5t19.5 -46.5v-237h789v237q0 27 19.5 46.5t46.5 19.5zM541 214l-227 226q-19 20 -19 47t19.5 46.5t46.5 19.5t46 -20 l120 -119v446q0 28 19 47t46.5 19t46.5 -19t19 -47v-446l119 119q20 20 47 20t46.5 -19.5t19.5 -46.5t-20 -47l-228 -228q-20 -23 -50 -23q-27 0 -46 20q-3 2 -5 5z" />
<glyph unicode="&#xe923;" horiz-adv-x="1000" d="M915 354.5q19 -19.5 19 -46.5t-19 -47l-368 -368q-19 -19 -46.5 -19t-46.5 19l-369 368q-19 20 -19 47t19.5 46.5t46.5 19.5t46 -20l256 -256v762q0 28 19.5 47t47 19t46.5 -19t19 -47v-762l256 256q19 20 46.5 20t46.5 -19.5z" />
<glyph unicode="&#xe924;" horiz-adv-x="1000" d="M915 538q19 -19 19 -46t-19 -46.5t-46.5 -19.5t-46.5 19l-256 257v-763q0 -27 -19 -46t-47 -19q-18 0 -33 8.5t-24 24t-9 32.5v763l-256 -257q-19 -19 -46 -19t-46.5 19.5t-19.5 46.5t19 46l369 369q19 19 46.5 19t46.5 -19z" />
<glyph unicode="&#xe925;" d="M1053 466q18 0 33 -9t24 -24t9 -33q0 -27 -19.5 -46.5t-46.5 -19.5h-762l256 -256q19 -19 19 -46.5t-19 -46.5t-46.5 -19t-46.5 19l-369 368q-19 20 -19 47t19 46l369 369q19 19 46.5 19t46.5 -19.5t19 -46.5t-19 -46l-256 -256h762z" />
<glyph unicode="&#xe926;" d="M1099 446q20 -19 20 -46t-20 -47l-368 -368q-19 -19 -46.5 -19t-46.5 19t-19 46.5t19 46.5l256 256h-762q-27 0 -46.5 19.5t-19.5 46.5t19.5 46.5t46.5 19.5h762l-256 256q-19 19 -19 46t19 46.5t46.5 19.5t46.5 -19z" />
<glyph unicode="&#xe927;" horiz-adv-x="637" d="M538 610q19 0 29 -16.5t-1 -32.5l-219 -356q-10 -16 -28.5 -16t-27.5 16l-220 356q-10 16 -0.5 32.5t29.5 16.5h438z" />
<glyph unicode="&#xe928;" horiz-adv-x="637" d="M566 239q11 -16 1 -33t-29 -17h-438q-20 0 -29.5 17t0.5 33l220 356q9 15 27.5 15t28.5 -15z" />
<glyph unicode="&#xe929;" horiz-adv-x="553" d="M438 648q16 10 32.5 0t16.5 -29v-438q0 -20 -16.5 -29.5t-32.5 0.5l-356 220q-16 10 -16 28t16 28z" />
<glyph unicode="&#xe92a;" horiz-adv-x="553" d="M471 428q16 -10 16 -28t-16 -28l-355 -220q-17 -10 -33.5 -0.5t-16.5 29.5v438q0 19 16.5 29t33.5 0z" />
<glyph unicode="&#xe92b;" d="M1053 466q27 0 46.5 -19.5t19.5 -46.5t-19.5 -46.5t-46.5 -19.5h-921q-27 0 -46.5 19.5t-19.5 46.5t19.5 46.5t46.5 19.5h921zM132 681q-27 0 -46.5 19.5t-19.5 46.5t19.5 46.5t46.5 19.5h921q27 0 46.5 -19.5t19.5 -46.5t-19.5 -46.5t-46.5 -19.5h-921zM921 118 q27 0 46.5 -19t19.5 -46q0 -18 -9 -33.5t-24 -24t-33 -8.5h-658q-27 0 -46 19t-19 46.5t19 46.5t46 19h658z" />
<glyph unicode="&#xe92c;" d="M1053 466q27 0 46.5 -19.5t19.5 -46.5t-19.5 -46.5t-46.5 -19.5h-921q-27 0 -46.5 19.5t-19.5 46.5t19.5 46.5t46.5 19.5h921zM132 681q-27 0 -46.5 19.5t-19.5 46.5t19.5 46.5t46.5 19.5h921q27 0 46.5 -19.5t19.5 -46.5t-19.5 -46.5t-46.5 -19.5h-921zM790 118 q18 0 33 -8.5t23.5 -24t8.5 -32.5q0 -28 -19 -47t-46 -19h-658q-27 0 -46.5 19t-19.5 46.5t19.5 46.5t46.5 19h658z" />
<glyph unicode="&#xe92d;" d="M1053 466q27 0 46.5 -19.5t19.5 -46.5t-19.5 -46.5t-46.5 -19.5h-921q-27 0 -46.5 19.5t-19.5 46.5t19.5 46.5t46.5 19.5h921zM132 681q-27 0 -46.5 19.5t-19.5 46.5t19.5 46.5t46.5 19.5h921q27 0 46.5 -19.5t19.5 -46.5t-19.5 -46.5t-46.5 -19.5h-921zM1053 118 q27 0 46.5 -19t19.5 -46.5t-19.5 -46.5t-46.5 -19h-658q-27 0 -46.5 19t-19.5 46.5t19.5 46.5t46.5 19h658z" />
<glyph unicode="&#xe92e;" horiz-adv-x="1188" d="M1056 466q28 0 47 -19.5t19 -46.5t-19 -46.5t-47 -19.5h-920q-28 0 -47 19.5t-19 46.5q0 18 8.5 33t24 24t33.5 9h920zM136 681q-28 0 -47 19.5t-19 46.5t19 46.5t47 19.5h920q28 0 47 -19.5t19 -46.5t-19 -46.5t-47 -19.5h-920zM1056 118q28 0 47 -19t19 -46.5 t-19 -46.5t-47 -19h-924q-27 0 -46.5 19t-19.5 46.5t19.5 46.5t46.5 19h924z" />
<glyph unicode="&#xe92f;" horiz-adv-x="780" d="M714 602q0 -83 -40 -156l-259 -556q-7 -16 -25 -16t-25 16l-259 556q-40 73 -40 156q0 88 43.5 162.5t118 118t162.5 43.5t162.5 -43.5t118 -118t43.5 -162.5zM546 602v1q0 64 -45.5 109.5t-110 45.5t-110 -45.5t-45.5 -109.5v-1q0 -64 45.5 -109.5t110 -45.5t110 45.5 t45.5 109.5z" />
<glyph unicode="&#xe930;" horiz-adv-x="1040" d="M809 781q69 0 117 -48t48 -116v-579q0 -68 -48 -116t-117 -48h-578q-69 0 -117 48t-48 116v579q0 68 48 116t117 48h81v112q0 14 10 23.5t23.5 9.5t23 -9.5t9.5 -23.5v-112h284v112q0 14 9.5 23.5t23.5 9.5q6 0 12.5 -2.5t10.5 -7t7 -10.5t3 -13v-112h81zM908 38v329 h-776v-329q0 -41 29 -70t70 -29h578q41 0 70 29t29 70zM132 433h776v184q0 41 -29 70t-70 29h-81v-94q0 -13 -10 -23t-23.5 -10t-23 10t-9.5 23v94h-284v-94q0 -13 -9.5 -23t-23 -10t-23.5 10t-10 23v94h-81q-41 0 -70 -29t-29 -70v-184z" />
<glyph unicode="&#xe931;" horiz-adv-x="987" d="M909 131q12 -10 12 -26v-73q0 -14 -9.5 -23.5t-23.5 -9.5h-789q-7 0 -13 2.5t-10.5 7t-7 10.5t-2.5 13v73q0 16 12 26q45 35 69 86t24 107v207q0 82 38 152.5t103.5 115t144.5 53.5v41q0 14 9.5 23.5t23.5 9.5t23.5 -9.5t9.5 -23.5v-41q124 -11 208.5 -103t84.5 -218 v-207q0 -56 24.5 -107t68.5 -86zM855 64v26q-50 45 -77.5 106t-27.5 128v207q0 107 -75 182t-181 75t-181.5 -75t-75.5 -182v-207q0 -67 -27.5 -128t-77.5 -106v-26h723zM562 -61q14 0 23.5 -9.5t9.5 -23t-9.5 -23t-23.5 -9.5h-144q-14 0 -23.5 9.5t-9.5 23t9.5 23t23.5 9.5 h144z" />
<glyph unicode="&#xe932;" horiz-adv-x="986" d="M816 324q0 -56 24 -107t68 -86q13 -10 13 -26v-73q0 -14 -9.5 -23.5t-23.5 -9.5h-789q-14 0 -23.5 9.5t-9.5 23.5v73q0 16 12 26q44 35 68.5 86t24.5 107v207q0 124 82.5 215.5t203.5 105.5v41q0 14 9.5 23.5t23 9.5t23.5 -9.5t10 -23.5v-41q123 -11 208 -103t85 -218 v-207zM855 64v26q-50 45 -77.5 106t-27.5 128v207q0 107 -75.5 182t-181.5 75t-181 -75t-75 -182v-207q0 -67 -27.5 -128t-77.5 -106v-26h723zM562 -61q14 0 23.5 -9.5t9.5 -23t-9.5 -23t-23.5 -9.5h-145q-13 0 -23 9.5t-10 23t10 23t23 9.5h145zM786.5 844.5 q9.5 9.5 23 9.5t23.5 -9q68 -68 104 -156t36 -184q0 -13 -9.5 -23t-23 -10t-23 10t-9.5 23q0 83 -31.5 158.5t-90.5 134.5q-9 10 -9 23.5t9.5 23zM79 505q0 -13 -9.5 -23t-23.5 -10t-23.5 10t-9.5 23q0 96 36.5 184t104.5 156q9 9 23 9t23.5 -9.5t9.5 -23t-10 -23.5 q-39 -39 -66 -86t-41 -99.5t-14 -107.5zM107.5 937.5q9.5 -9.5 9.5 -23t-10 -23.5q-77 -77 -118.5 -176.5t-41.5 -209.5q0 -13 -9.5 -23t-23 -10t-23 10t-9.5 23q0 123 46 234.5t133 198.5q9 9 23 9t23.5 -9.5zM926 938q34 -35 62.5 -74t50 -81.5t36.5 -88t22.5 -93 t7.5 -96.5q0 -13 -9.5 -23t-23.5 -10t-23.5 10t-9.5 23q0 110 -41 209.5t-119 176.5q-9 10 -9 23.5t9.5 23t23 9.5t23.5 -9z" />
<glyph unicode="&#xe933;" horiz-adv-x="1006" d="M320.5 217q-9.5 10 -9.5 24t10 24l319 319q9 9 23 9t23 -9l1 -2q10 -9 10 -23t-10 -23l-319 -319q-10 -10 -24 -10t-23.5 10zM876 772.5q65 -64.5 65 -156.5t-65 -157l-141 -141q-10 -10 -23.5 -10t-23 9.5t-9.5 23.5t9 23l142 141q45 46 45 110.5t-45.5 110.5t-110 46 t-110.5 -46l-141 -141q-10 -10 -23.5 -10t-23 9.5t-9.5 23.5t9 23l142 141q65 65 156.5 65t156.5 -64.5zM539 215q10 10 23.5 10t23.5 -10t10 -23.5t-10 -22.5l-141 -142q-65 -65 -157 -65t-157 65t-65 157t65 157l141 141q10 10 23.5 10t23.5 -9.5t10 -23.5t-10 -23 l-141 -142q-46 -45 -46 -109.5t45.5 -110.5t110.5 -46t110 46z" />
<glyph unicode="&#xe934;" horiz-adv-x="1395" d="M836 697q0 -13 -10 -23t-23.5 -10t-23 10t-9.5 23v19q0 13 9.5 23t23 10t23.5 -10t10 -23v-19zM802.5 135q13.5 0 23.5 -9.5t10 -22.5v-19q0 -4 -1.5 -8.5t-3.5 -8t-5 -6.5t-6.5 -5t-8 -3.5t-8.5 -1.5q-14 0 -23.5 10t-9.5 23v19q0 13 9.5 22.5t23 9.5zM1119 367h-19 q-14 0 -23.5 9.5t-9.5 23.5t9.5 23.5t23.5 9.5h19q13 0 22.5 -9.5t9.5 -23.5t-9.5 -23.5t-22.5 -9.5zM204 499q-13 0 -23 9.5t-10 23t10 23t23 9.5h303q13 0 23 -9.5t10 -23t-10 -23t-23 -9.5h-303zM540 268.5q0 -13.5 -10 -23.5t-23 -10h-303q-13 0 -23 10t-10 23.5t10 23 t23 9.5h303q13 0 23 -9.5t10 -23zM434 400q0 -14 -9.5 -23.5t-22.5 -9.5h-303q-14 0 -23.5 9.5t-9.5 23.5t9.5 23.5t23.5 9.5h303q13 0 22.5 -9.5t9.5 -23.5zM803 926q108 0 207 -43t170 -115.5t111.5 -172.5t37.5 -210q-4 -132 -69 -245.5t-176 -184t-242 -80.5 q-163 -12 -301.5 68t-209.5 224q-6 13 -1 26t18 18v1q12 4 24 -0.5t18 -16.5q63 -126 186 -196t266 -58q115 10 210.5 72t151.5 161t59 214q2 96 -33.5 183.5t-97.5 150.5t-148 100.5t-181 37.5q-132 0 -243.5 -69t-169.5 -187q-6 -11 -18 -16t-24 0q-13 6 -18 19t1 26 q66 135 193.5 214t278.5 79zM692.5 460.5q9.5 9.5 23 9.5t23.5 -10l65 -65l139 140q10 9 23.5 9t23 -9.5t9.5 -23t-9 -23.5l-163 -163q-10 -9 -23.5 -9t-22.5 9l-89 89q-9 9 -9 23t9.5 23.5z" />
<glyph unicode="&#xe935;" horiz-adv-x="1345" d="M1261 71q20 -33 18 -68t-17.5 -63.5t-46.5 -47t-68 -18.5h-949q-37 0 -68 18.5t-46.5 47t-17.5 63.5t18 68l475 822q24 43 69 59t89.5 0t69.5 -59zM1147 -61q38 0 57 33t0 66l-474 822q-19 33 -57 33t-57 -33l-475 -822q-19 -33 0 -66t57 -33h949zM673 643q27 0 46 -19 t19 -47v-247q0 -27 -19 -46.5t-46.5 -19.5t-46.5 19.5t-19 46.5v247q0 18 8.5 33.5t24 24t33.5 8.5zM672.5 54q-27.5 0 -46.5 19t-19 46.5t19 46.5t46.5 19t46.5 -19t19 -46.5t-19 -46.5t-46.5 -19z" />
<glyph unicode="&#xe936;" d="M592.5 695q27.5 0 46.5 -19.5t19 -46.5v-248q0 -17 -8.5 -32.5t-24 -24t-33.5 -8.5q-27 0 -46 19t-19 46v248q0 27 19 46.5t46.5 19.5zM592.5 105q-27.5 0 -46.5 19.5t-19 46.5t19 46.5t46.5 19.5t46.5 -19.5t19 -46.5t-19 -46.5t-46.5 -19.5zM592 926q107 0 204.5 -41.5 t168 -112t112.5 -168t42 -204.5q0 -86 -27 -166t-75.5 -145t-113.5 -113.5t-145 -75t-166 -26.5q-71 0 -139 19t-126 53t-106.5 82.5t-82.5 106t-53 125.5t-19 140q0 107 42 204.5t112.5 168t167.5 112t204 41.5zM592.5 -61q93.5 0 178.5 37t147 98.5t98.5 146.5t36.5 178.5 t-36.5 179t-98.5 147t-147 98t-178.5 36.5t-179 -36.5t-147 -98t-98 -147t-36.5 -179t36.5 -178.5t98 -146.5t147 -98.5t179 -37z" />
<glyph unicode="&#xe937;" d="M592.5 484q27.5 0 46.5 -19t19 -47v-247q0 -27 -19 -46.5t-46.5 -19.5t-46.5 19.5t-19 46.5v247q0 28 19 47t46.5 19zM592.5 563q-27.5 0 -46.5 19.5t-19 46.5t19 46.5t46.5 19.5t46.5 -19.5t19 -46.5t-19 -46.5t-46.5 -19.5zM592 926q107 0 204.5 -41.5t168 -112 t112.5 -168t42 -204.5q0 -86 -27 -166t-75.5 -145t-113.5 -113.5t-145 -75t-166 -26.5q-71 0 -139 19t-126 53t-106.5 82.5t-82.5 106t-53 125.5t-19 140q0 107 42 204.5t112.5 168t167.5 112t204 41.5zM592.5 -61q93.5 0 178.5 37t147 98.5t98.5 146.5t36.5 178.5 t-36.5 179t-98.5 147t-147 98t-178.5 36.5t-179 -36.5t-147 -98t-98 -147t-36.5 -179t36.5 -178.5t98 -146.5t147 -98.5t179 -37z" />
<glyph unicode="&#xe938;" d="M592 926q107 0 204.5 -41.5t168 -112t112.5 -168t42 -204.5q0 -86 -27 -166t-75.5 -145t-113.5 -113.5t-145 -75t-166 -26.5q-71 0 -139 19t-126 53t-106.5 82.5t-82.5 106t-53 125.5t-19 140q0 107 42 204.5t112.5 168t167.5 112t204 41.5zM592.5 -61q93.5 0 178.5 37 t147 98.5t98.5 146.5t36.5 178.5t-36.5 179t-98.5 147t-147 98t-178.5 36.5t-179 -36.5t-147 -98t-98 -147t-36.5 -179t36.5 -178.5t98 -146.5t147 -98.5t179 -37zM743 551q20 19 47 19t46.5 -19t19.5 -46.5t-20 -46.5l-251 -251q-19 -19 -46 -19t-47 19l-132 132 q-19 19 -19 46.5t19 46.5t46.5 19t46.5 -19l86 -86z" />
<glyph unicode="&#xe939;" horiz-adv-x="1023" d="M491 194l-413 338q-12 9 -12 25t12 25l413 337q9 7 20.5 7t20.5 -7l414 -336q12 -10 12 -26t-12 -25l-414 -338q-9 -7 -20.5 -7t-20.5 7zM511 851l-360 -294l360 -295l362 295zM904 428q10 9 24 7.5t22.5 -12t7 -24t-11.5 -22.5l-414 -339q-9 -8 -20.5 -8t-21.5 8 l-412 339q-10 9 -11.5 22.5t7 24t22 12t24.5 -7.5l391 -322zM904 271q10 9 24 7.5t22.5 -12t7 -24t-11.5 -21.5l-414 -340q-9 -7 -20.5 -7t-21.5 7l-412 340q-10 8 -11.5 21.5t7 24t22 12t24.5 -7.5l391 -322z" />
<glyph unicode="&#xe93a;" horiz-adv-x="1294" d="M1225 278q8 -57 -2.5 -114t-37 -108t-66.5 -91q-90 -90 -218 -90q-42 0 -82 11q-42 -12 -86 -12q-127 0 -217 90l-259 259q-29 29 -29 70t29 69q12 13 27 20l-27 27q-29 29 -29 70t29 70q15 16 36 23q-10 26 -4 54.5t27 49.5t49.5 27t54.5 -4q7 20 23 36q29 29 70 29 t70 -29l15 -15q6 9 13 16q29 29 70 29t70 -29l94 -94q39 43 97 45q33 2 57 -21q9 -9 15 -21q39 41 96 43q33 2 57 -21t24 -56q0 -40 3 -80q4 -48 31 -253zM658 690q-9 -9 -10 -20l153 -153q1 33 10 65l-107 108q-9 9 -23 9t-23 -9zM733 -61q100 0 171 71q51 51 74 119.5 t14 138.5q-27 207 -31 257q-4 42 -4 85q0 5 -3.5 8.5t-9.5 3.5q-22 -1 -40 -14t-26 -34q-13 -33 -10 -68l4 -72q1 -22 -19.5 -31.5t-36.5 6.5l-280 280q-9 9 -23 9t-23.5 -9.5t-9.5 -23t10 -23.5l182 -182q9 -10 9 -23.5t-9.5 -23t-23 -9.5t-23.5 9l-216 216q-9 10 -23 10 t-23.5 -9.5t-9.5 -23.5t10 -23l33 -33v-1l183 -182q9 -10 9 -23.5t-9.5 -23t-23 -9.5t-23.5 9l-183 183q-9 9 -22.5 9t-23 -9.5t-9.5 -23.5t9 -23l93 -93v-1l149 -148q9 -9 9 -23t-9.5 -23.5t-23 -9.5t-23.5 10l-148 148q-10 10 -23 10q-14 0 -23.5 -10t-9.5 -23.5t9 -23.5 l259 -259q71 -71 171 -71zM1072 11q51 51 74 119t14 139q-27 207 -31 256q-4 43 -4 86q0 5 -3.5 8.5t-9.5 2.5q-22 -1 -40 -14t-26 -33q-13 -33 -10 -68l4 -72q0 -6 -2 -12q8 -60 19 -146t-17 -169t-89 -144q-12 -12 -25 -22q85 8 146 69zM206 738l-65 65q-11 11 -11 26.5 t11 26t26 10.5t26 -11l65 -64q11 -11 11 -26.5t-11 -26t-26.5 -10.5t-25.5 10zM359 761q-15 0 -26 10.5t-11 26.5v91q0 8 3 14.5t8 11.5t11.5 8t14.5 3q15 0 26 -11t11 -26v-91q0 -16 -11 -26.5t-26 -10.5zM195 663q15 0 26 -11t11 -26.5t-11 -26t-26 -10.5h-92 q-15 0 -26 10.5t-11 26t11 26.5t26 11h92z" />
<glyph unicode="&#xe93b;" d="M1020 564q41 0 70 -28.5t29 -69.5v-494q0 -40 -29 -69t-70 -29h-493q-41 0 -70 29t-29 69v264h-263q-41 0 -70 28.5t-29 69.5v493q0 41 29 70t70 29h493q41 0 70 -29t29 -70v-263h263zM428 466q0 41 29 69.5t70 28.5h164v263q0 9 -4.5 17t-12 12t-16.5 4h-493 q-9 0 -16.5 -4t-12 -12t-4.5 -17v-493q0 -13 9.5 -23t23.5 -10h263v165zM1053 -28v494q0 13 -10 23t-23 10h-493q-14 0 -23.5 -10t-9.5 -23v-494q0 -8 4 -16t12 -12t17 -4h493q13 0 23 9.5t10 22.5z" />
<glyph unicode="&#xe93c;" d="M954 203q68 0 116.5 -48.5t48.5 -116.5t-48.5 -116t-116.5 -48t-116 48t-48 116q0 22 5 43l-435 217q-50 -63 -129 -63q-68 0 -116.5 48.5t-48.5 116.5t48.5 116t116.5 48q79 0 129 -63l435 218q-5 21 -5 43q0 68 48 116t116 48t116.5 -48t48.5 -116t-48.5 -116.5 t-116.5 -48.5q-80 0 -129 63l-436 -217q6 -21 6 -43t-6 -43l436 -217q49 63 129 63zM954 860q-41 0 -70 -29t-29 -69.5t29 -69.5t70 -29t70 29t29 69.5t-29 69.5t-70 29zM230.5 301q40.5 0 69.5 29t29 70t-29 70t-69.5 29t-69.5 -29t-29 -70t29 -70t69.5 -29zM954 -61 q41 0 70 29t29 70t-29 70t-70 29t-70 -29t-29 -70t29 -70t70 -29z" />
<glyph unicode="&#xe93d;" d="M99 729q-14 0 -23.5 9.5t-9.5 23t9.5 23.5t23.5 10h694q12 58 59 95.5t107 35.5q64 -2 110 -47.5t49 -108.5q4 -71 -45 -122t-119 -51q-59 0 -104 37.5t-57 94.5h-694zM954 860q-27 0 -49.5 -13t-36 -36t-13.5 -49q0 -41 29 -70t70 -29t70 29t29 69.5t-29 69.5t-70 29z M959 202q64 -1 110 -47t49 -109q4 -71 -45 -121.5t-119 -50.5q-59 0 -104 37.5t-57 93.5h-694q-14 0 -23.5 10t-9.5 23.5t9.5 23t23.5 9.5h694q12 58 59 95.5t107 35.5zM954 -61q41 0 70 29t29 70q0 27 -13.5 49.5t-36 36t-49.5 13.5q-41 0 -70 -29t-29 -70t29 -70t70 -29z M1086 433q13 0 23 -9.5t10 -23.5t-10 -23.5t-23 -9.5h-694q-12 -58 -59 -95.5t-108 -35.5q-41 1 -77 22t-58 56.5t-24 77.5q-3 71 45.5 121.5t119.5 50.5q59 0 104 -37t57 -94h694zM231 301q26 0 49 13.5t36 36t13 49.5q0 41 -29 70t-69.5 29t-69.5 -29t-29 -70t29 -70 t70 -29z" />
<glyph unicode="&#xe93e;" d="M1086 -61q13 0 23 -9.5t10 -23t-10 -23t-23 -9.5h-987q-7 0 -13 2.5t-10.5 7t-7 10.5t-2.5 13v986q0 14 9.5 23.5t23.5 9.5t23.5 -9.5t9.5 -23.5v-954h954zM350.5 57q-46.5 0 -79.5 32.5t-33 79t33 79t79 32.5h5l66 188q-46 34 -46 90q0 46 33 79t79 33t79 -33t33 -79 q0 -7 -1 -13l161 -72q33 39 84 39h1l53 164q-48 34 -48 92q0 46 32.5 79t79 33t79 -33t32.5 -79t-32.5 -79t-78.5 -33h-1h-1l-52 -164q48 -34 48 -92q0 -46 -33 -79t-79 -33t-79 33t-33 79q0 7 1 13l-161 71q-33 -38 -84 -38h-4l-66 -188q45 -33 45 -90q0 -46 -32.5 -78.5 t-79 -32.5zM961 814q-19 0 -32.5 -13.5t-13.5 -32.5q0 -12 6 -22.5t16.5 -17t23.5 -6.5q19 0 32.5 13.5t13.5 32.5t-13.5 32.5t-32.5 13.5zM843 446q-19 0 -32.5 -13.5t-13.5 -32.5t13.5 -32.5t32.5 -13.5t32.5 13.5t13.5 32.5t-13.5 32.5t-32.5 13.5zM487 604 q-19 0 -32.5 -13.5t-13.5 -32.5t13.5 -32.5t32.5 -13.5t32.5 13.5t13.5 32.5t-13.5 32.5t-32.5 13.5zM350 214q-19 0 -32.5 -13.5t-13.5 -32.5t13.5 -32.5t32.5 -13.5t32.5 13.5t13.5 32.5t-13.5 32.5t-32.5 13.5z" />
<glyph unicode="&#xe93f;" horiz-adv-x="1198" d="M997 926q56 0 95.5 -39.5t39.5 -96t-39.5 -96t-95.5 -39.5h-9l-73 -229q29 -18 46.5 -48.5t17.5 -66.5q0 -56 -39.5 -96t-96 -40t-96 40t-39.5 96q0 11 2 23l-223 99q-41 -52 -107 -52h-13l-91 -258q19 -13 32.5 -30t21 -38.5t7.5 -45.5q0 -56 -39.5 -95.5t-95.5 -39.5 q-37 0 -68 18t-49.5 49.5t-18.5 67.5q0 56 40 96t96 40q6 0 12 -1l91 259q-28 19 -44.5 49t-16.5 64q0 57 40 96.5t96 39.5t96 -39.5t40 -96.5q0 -11 -3 -23l224 -99q41 53 106 53q2 0 9 -1l73 229q-29 19 -46.5 49.5t-17.5 65.5q0 57 40 96.5t96 39.5zM202 -61q19 0 35 9.5 t25.5 25.5t9.5 35q0 29 -20.5 49.5t-49.5 20.5t-49.5 -20.5t-20.5 -49.5t20.5 -49.5t49.5 -20.5zM380 446q19 0 35 9.5t25.5 25.5t9.5 35q0 29 -20.5 49.5t-49.5 20.5q-19 0 -35 -9t-25.5 -25.5t-9.5 -35.5q0 -29 20.5 -49.5t49.5 -20.5zM843 241q19 0 35.5 9.5t25.5 25.5 t9 35t-9 35t-25.5 25.5t-35.5 9.5q-14 0 -27 -5.5t-22 -15t-14.5 -22.5t-5.5 -27q0 -29 20.5 -49.5t48.5 -20.5zM996.5 721q28.5 0 49 20.5t20.5 49t-20.5 49t-48.5 20.5q-19 0 -35.5 -9t-25.5 -25.5t-9 -35.5q0 -28 20.5 -48.5t49 -20.5z" />
<glyph unicode="&#xe940;" horiz-adv-x="1105" d="M553 360q125 0 233.5 -59.5t176 -163t76.5 -228.5q1 -14 -7.5 -24t-22.5 -11h-2q-13 0 -22.5 8.5t-10.5 21.5q-8 108 -66.5 197.5t-152.5 141.5t-202 52t-202 -52t-152.5 -141.5t-66.5 -197.5q-1 -13 -11.5 -22t-24 -8t-22.5 11t-8 24q7 93 48.5 177t106.5 144t151.5 95 t180.5 35zM553 400q-109 0 -186 77t-77 186t77 186t186 77t186 -77t77 -186t-77 -186t-186 -77zM552.5 860q-81.5 0 -139.5 -57.5t-58 -139.5t58 -139.5t139.5 -57.5t139.5 57.5t58 139.5t-58 139.5t-139.5 57.5z" />
<glyph unicode="&#xe941;" horiz-adv-x="1105" d="M553 400q-109 0 -186 77t-77 186t77 186t186 77t186 -77t77 -186t-77 -186t-186 -77zM552.5 860q-81.5 0 -139.5 -57.5t-58 -139.5t58 -139.5t139.5 -57.5t139.5 57.5t58 139.5t-58 139.5t-139.5 57.5zM553 360q125 0 233.5 -59.5t176 -163t76.5 -228.5q1 -14 -7.5 -24 t-22.5 -11h-2q-13 0 -22.5 8.5t-10.5 21.5q-8 108 -66.5 197.5t-152.5 141.5t-202 52t-202 -52t-152.5 -141.5t-66.5 -197.5q-1 -13 -11.5 -22t-24 -8t-22.5 11t-8 24q7 93 48.5 177t106.5 144t151.5 95t180.5 35zM1202 735q14 0 23.5 -10t9.5 -23.5t-9.5 -23t-23.5 -9.5 h-90v-90q0 -14 -9.5 -23.5t-23.5 -9.5q-7 0 -13 2.5t-10.5 7t-7 10.5t-2.5 13v90h-90q-14 0 -23.5 9.5t-9.5 23t9.5 23.5t23.5 10h90v90q0 9 4.5 16.5t12 12t16.5 4.5q14 0 23.5 -10t9.5 -23v-90h90z" />
<glyph unicode="&#xe942;" horiz-adv-x="1105" d="M553 400q-109 0 -186 77t-77 186t77 186t186 77t186 -77t77 -186t-77 -186t-186 -77zM552.5 860q-81.5 0 -139.5 -57.5t-58 -139.5t58 -139.5t139.5 -57.5t139.5 57.5t58 139.5t-58 139.5t-139.5 57.5zM553 360q125 0 233.5 -59.5t176 -163t76.5 -228.5q1 -14 -7.5 -24 t-22.5 -11h-2q-13 0 -22.5 8.5t-10.5 21.5q-8 108 -66.5 197.5t-152.5 141.5t-202 52t-202 -52t-152.5 -141.5t-66.5 -197.5q-1 -13 -11.5 -22t-24 -8t-22.5 11t-8 24q7 93 48.5 177t106.5 144t151.5 95t180.5 35zM1202 735q14 0 23.5 -10t9.5 -23.5t-9.5 -23t-23.5 -9.5 h-246q-14 0 -23.5 9.5t-9.5 23t9.5 23.5t23.5 10h246z" />
<glyph unicode="&#xe943;" d="M1086 926q13 0 23 -9.5t10 -23.5v-250q0 -13 -10 -23t-23.5 -10t-23 10t-9.5 23v171l-265 -265q-10 -10 -23.5 -10t-23 9.5t-9.5 23.5t9 23l265 265h-170q-14 0 -23.5 10t-9.5 23q0 7 2.5 13t7 10.5t10.5 7t13 2.5h250zM397 251q10 10 23.5 10t23 -10t9.5 -23.5t-9 -22.5 l-266 -266h171q14 0 23.5 -9.5t9.5 -23t-9.5 -23t-23.5 -9.5h-250q-14 0 -23.5 9.5t-9.5 23.5v250q0 13 9.5 22.5t23.5 9.5t23.5 -9.5t9.5 -22.5v-171zM1085.5 189q13.5 0 23.5 -9.5t10 -22.5v-250q0 -14 -10 -23.5t-23 -9.5h-250q-14 0 -23.5 9.5t-9.5 23t9.5 23t23.5 9.5 h170l-265 266q-9 9 -9 22.5t9.5 23.5t23 10t23.5 -10l265 -265v171q0 13 9.5 22.5t23 9.5zM178 860l266 -265q9 -9 9 -23t-9.5 -23.5t-23 -9.5t-23.5 10l-265 265v-171q0 -13 -9.5 -23t-23.5 -10t-23.5 10t-9.5 23v250q0 14 9.5 23.5t23.5 9.5h250q14 0 23.5 -9.5t9.5 -23 t-9.5 -23.5t-23.5 -10h-171z" />
<glyph unicode="&#xe944;" d="M810 229l299 -299q10 -10 10 -23.5t-10 -23t-23.5 -9.5t-23.5 9l-299 299v-170q0 -14 -9.5 -23.5t-23 -9.5t-23 9.5t-9.5 23.5v250q0 13 9.5 23t22.5 10h250q14 0 23.5 -10t9.5 -23.5t-9.5 -23t-23.5 -9.5h-170zM454.5 821q13.5 0 23 -9.5t9.5 -23.5v-250 q0 -14 -9.5 -23.5t-23.5 -9.5h-250q-13 0 -23 9.5t-10 23.5t10 23.5t23 9.5h171l-299 299q-10 10 -10 23.5t9.5 23t23.5 9.5t23 -10l299 -299v171q0 14 10 23.5t23.5 9.5zM730 505q-13 0 -22.5 9.5t-9.5 23.5v250q0 14 9.5 23.5t23 9.5t23 -9.5t9.5 -23.5v-171l299 299 q10 10 23.5 10t23.5 -9.5t10 -23t-10 -23.5l-299 -299h170q14 0 23.5 -9.5t9.5 -23.5t-9.5 -23.5t-23.5 -9.5h-250zM454 295q14 0 23.5 -10t9.5 -23v-250q0 -14 -9.5 -23.5t-23 -9.5t-23.5 9.5t-10 23.5v170l-299 -299q-9 -9 -23 -9t-23.5 9.5t-9.5 23t10 23.5l299 299h-171 q-13 0 -23 9.5t-10 23t10 23.5t23 10h250z" />
<glyph unicode="&#xe945;" d="M1086 926q13 0 23 -9.5t10 -23.5v-271q0 -9 -4.5 -16.5t-12 -12t-16.5 -4.5q-14 0 -23.5 10t-9.5 23v192l-379 -379q-10 -10 -23.5 -10t-23 10t-9.5 23.5t10 23.5l378 378h-191q-9 0 -16.5 4.5t-12 12t-4.5 16.5t4.5 16.5t12 12t16.5 4.5h271zM938.5 295q13.5 0 23 -10 t9.5 -23v-257q0 -35 -17.5 -65.5t-48 -48t-65.5 -17.5h-642q-36 0 -66.5 17.5t-48 48t-17.5 65.5v642q0 55 38.5 93.5t93.5 38.5h256q14 0 23.5 -9.5t9.5 -23.5t-9.5 -23.5t-23.5 -9.5h-256q-28 0 -47 -19.5t-19 -46.5v-642q0 -27 19 -46.5t47 -19.5h642q27 0 46 19.5 t19 46.5v257q0 13 10 23t23.5 10z" />
<glyph unicode="&#xe946;" d="M1109 916.5q10 -9.5 10 -23t-10 -23.5l-379 -379h192q13 0 23 -9.5t10 -23t-10 -23.5t-23 -10h-271q-14 0 -23.5 10t-9.5 23v271q0 9 4.5 16.5t12 12t16.5 4.5q13 0 23 -9.5t10 -23.5v-191l378 378q10 10 23.5 10t23.5 -9.5zM938 295q9 0 16.5 -4.5t12 -12t4.5 -16.5 v-257q0 -35 -17.5 -65.5t-48 -48t-65.5 -17.5h-642q-36 0 -66.5 17.5t-48 48t-17.5 65.5v642q0 55 38.5 93.5t93.5 38.5h256q14 0 23.5 -9.5t9.5 -23.5t-9.5 -23.5t-23.5 -9.5h-256q-18 0 -33 -9t-24 -24t-9 -33v-642q0 -27 19 -46.5t47 -19.5h642q27 0 46 19.5t19 46.5v257 q0 13 10 23t23 10z" />
<glyph unicode="&#xe947;" d="M132 795q-18 0 -33 8.5t-24 23.5t-9 33q0 28 19.5 47t46.5 19h921q27 0 46.5 -19t19.5 -46.5t-19.5 -46.5t-46.5 -19h-921zM1053 466q27 0 46.5 -19.5t19.5 -46.5t-19.5 -46.5t-46.5 -19.5h-921q-27 0 -46.5 19.5t-19.5 46.5t19.5 46.5t46.5 19.5h921zM1053 5 q27 0 46.5 -19t19.5 -46.5t-19.5 -46.5t-46.5 -19h-921q-27 0 -46.5 19t-19.5 46.5t19.5 46.5t46.5 19h921z" />
<glyph unicode="&#xe948;" d="M1053 926q27 0 46.5 -19t19.5 -47v-921q0 -27 -19.5 -46t-46.5 -19t-46.5 19t-19.5 46v921q0 28 19.5 47t46.5 19zM592.5 926q27.5 0 46.5 -19t19 -47v-921q0 -27 -19 -46t-46.5 -19t-46.5 19t-19 46v921q0 28 19 47t46.5 19zM132 926q27 0 46.5 -19t19.5 -47v-921 q0 -27 -19.5 -46t-46.5 -19t-46.5 19t-19.5 46v921q0 28 19.5 47t46.5 19z" />
<glyph unicode="&#xe949;" d="M474 926q27 0 46.5 -19t19.5 -47v-342q0 -27 -19.5 -46t-46.5 -19h-342q-27 0 -46.5 19t-19.5 46v342q0 28 19.5 47t46.5 19h342zM474 347q27 0 46.5 -19t19.5 -46v-343q0 -27 -19.5 -46t-46.5 -19h-342q-27 0 -46.5 19t-19.5 46v343q0 27 19.5 46t46.5 19h342zM1053 926 q27 0 46.5 -19t19.5 -47v-342q0 -27 -19.5 -46t-46.5 -19h-342q-28 0 -47 19t-19 46v342q0 28 19 47t47 19h342zM1053 347q27 0 46.5 -19t19.5 -46v-343q0 -27 -19.5 -46t-46.5 -19h-342q-28 0 -47 19t-19 46v343q0 27 19 46t47 19h342z" />
<glyph unicode="&#xe94a;" d="M1086 780q34 -34 32 -82q-2 -42 -34 -75l-55 -55q-9 -9 -23 -9t-23 9l-222 222q-10 10 -10 23.5t10 23.5l57 57q34 34 82 32q42 -2 75 -34zM1040 672q13 13 13 31t-13 30l-114 115q-13 12 -31 12t-31 -12l-34 -34l176 -176zM889 521q10 10 23.5 10t23 -9.5t9.5 -23.5 t-9 -23l-444 -444q-4 -4 -11 -7l-370 -148q-6 -2 -12 -2q-19 0 -28 16q-9 14 -2 30l147 369q3 6 8 11l443 443q10 10 23.5 10t23 -9.5t9.5 -23.5t-10 -23l-420 -420l65 -65l420 420q10 10 23.5 10t23 -9.5t9.5 -23.5t-9 -23l-420 -420l64 -65zM158 -34l47 18l-28 29zM271 11 l140 56l-152 151l-56 -139z" />
<glyph unicode="&#xe94b;" d="M938.5 400q13.5 0 23 -9.5t9.5 -23.5v-362q0 -54 -38.5 -92.5t-92.5 -38.5h-642q-36 0 -66.5 17.5t-48 48t-17.5 65.5v642q0 55 38.5 93.5t93.5 38.5h361q14 0 23.5 -9.5t9.5 -23.5t-9.5 -23.5t-23.5 -9.5h-361q-28 0 -47 -19.5t-19 -46.5v-642q0 -27 19 -46.5t47 -19.5 h642q27 0 46 19.5t19 46.5v362q0 14 10 23.5t23.5 9.5zM1078.5 885.5q40.5 -40.5 40.5 -97.5t-41 -98l-372 -372q-40 -40 -97.5 -40t-98 40.5t-40.5 97.5t41 98l372 372q40 40 97.5 40t98 -40.5zM659 365l255 254q-27 17 -56.5 46.5t-46.5 55.5l-254 -254q-21 -21 -21 -51 t21 -51t51 -21t51 21zM1032 737q21 21 21 51t-21.5 51t-51.5 21t-51 -21l-70 -70q13 -25 45 -57t57 -45z" />
<glyph unicode="&#xe94c;" horiz-adv-x="1144" d="M763.5 72q-13.5 0 -23 9.5t-9.5 22.5v470q0 14 9.5 23.5t23 9.5t23.5 -9.5t10 -23.5v-470q0 -13 -10 -22.5t-23.5 -9.5zM579.5 72q-13.5 0 -23.5 9.5t-10 22.5v470q0 14 10 23.5t23.5 9.5t23 -9.5t9.5 -23.5v-470q0 -13 -9.5 -22.5t-23 -9.5zM395.5 72q-13.5 0 -23 9.5 t-9.5 22.5v470q0 14 9.5 23.5t23 9.5t23.5 -9.5t10 -23.5v-470q0 -13 -10 -22.5t-23.5 -9.5zM1046 800q14 0 23.5 -9.5t9.5 -23.5t-9.5 -23.5t-23.5 -9.5h-64v-685q0 -73 -51.5 -124t-123.5 -51h-473q-73 0 -124 51t-51 124v685h-60q-14 0 -23.5 9.5t-9.5 23.5t9.5 23.5 t23.5 9.5h255q11 54 55 90t100 36h127q57 0 100.5 -36t55.5 -90h254zM509 860q-29 0 -53 -16.5t-34 -43.5h301q-10 27 -34 43.5t-53 16.5h-127zM916 49v685h-692v-685q0 -30 15 -55t40 -40t55 -15h473q45 0 77 32.5t32 77.5z" />
<glyph unicode="&#xe94d;" horiz-adv-x="1239" d="M584 294.5q0 -59.5 -42 -101.5t-101 -42t-101 42t-42 101.5t42 101.5t101 42t101 -42t42 -101.5zM441 217q32 0 55 23t23 55t-23 54.5t-55 22.5t-55 -22.5t-23 -54.5t23 -55t55 -23zM441 262q-14 0 -23.5 9.5t-9.5 23t9.5 23.5t23.5 10t23.5 -10t9.5 -23.5t-9.5 -23 t-23.5 -9.5zM707 76q11 4 22.5 0.5t17.5 -13.5q8 -13 3 -28t-19 -20q-53 -20 -108 -20q-58 0 -113 20q-15 6 -20 20t3 27q6 11 17 15t23 0q44 -16 90 -16q43 0 84 15zM1048 482q54 -12 90 -55.5t36 -100.5v-116q0 -56 -36 -100t-90 -55v-17q0 -68 -48.5 -116t-116.5 -48 h-526q-68 0 -116.5 48t-48.5 116v17q-54 11 -90 55t-36 100v116q0 57 36 101t90 55v32q0 41 29 70t70 29h46q28 37 66 65l-49 63q-14 -4 -28 -4q-26 0 -47.5 12.5t-34.5 34.5t-13 47q0 40 28 67.5t67 27.5q19 0 36.5 -7.5t30.5 -20t20.5 -30t7.5 -37.5q0 -27 -15 -50l53 -69 q75 37 161 37t161 -37l53 69q-15 23 -15 50q0 40 28 67.5t67 27.5t67 -28t28 -67t-28 -66.5t-67 -27.5q-15 0 -28 4l-49 -63q38 -28 66 -65h46q41 0 70 -29t29 -70v-32zM914 860q-12 0 -20.5 -8.5t-8.5 -20.5t8.5 -20.5t20.5 -8.5t20.5 8.5t8.5 20.5t-8.5 20.5t-20.5 8.5z M326 802q8 0 14.5 4t10.5 10.5t4 14.5q0 12 -8.5 20.5t-20.5 8.5t-20.5 -8.5t-8.5 -20.5t8.5 -20.5t20.5 -8.5zM192 123v291q-26 -10 -43 -34t-17 -54v-116q0 -19 7.5 -36.5t21.5 -30.5t31 -20zM620 683q-112 0 -193 -70h386q-81 70 -193 70zM982 38v476q0 9 -4.5 16.5 t-12 12t-16.5 4.5h-658q-13 0 -23 -9.5t-10 -23.5v-476q0 -41 29 -70t70 -29h526q41 0 70 29t29 70zM1108 210v116q0 30 -17 54t-43 34v-291q17 7 30.5 20t21.5 30.5t8 36.5zM799 438q59 0 101 -42t42 -101.5t-42 -101.5t-101 -42t-101.5 42t-42.5 101.5t42.5 101.5 t101.5 42zM799 217q32 0 54.5 23t22.5 55t-22.5 54.5t-54.5 22.5t-55 -22.5t-23 -54.5t23 -55t55 -23zM799 262q-14 0 -23.5 9.5t-9.5 23t9.5 23.5t23 10t23.5 -10t10 -23q0 -9 -4.5 -16.5t-12 -12t-16.5 -4.5z" />
<glyph unicode="&#xe94e;" horiz-adv-x="987" d="M912 601q9 -10 9 -24v-670q0 -14 -9.5 -23.5t-23.5 -9.5h-789q-14 0 -23.5 9.5t-9.5 23.5v986q0 7 2.5 13t7 10.5t10.5 7t13 2.5h474q13 0 23 -10zM605 814v-204h204zM855 -61v606h-282q-14 0 -23.5 9.5t-9.5 22.5v250q0 14 -10 23.5t-23 9.5h-375v-921h723z" />
<glyph unicode="&#xe94f;" horiz-adv-x="987" d="M888 812q14 0 23.5 -10t9.5 -23v-872q0 -14 -9.5 -23.5t-23.5 -9.5h-789q-14 0 -23.5 9.5t-9.5 23.5v872q0 13 9.5 23t23.5 10h124q9 0 16.5 -4.5t12 -12t4.5 -16.5q0 -14 -9.5 -23.5t-23.5 -9.5h-91v-807h723v807h-93q-13 0 -22.5 9.5t-9.5 23t9.5 23.5t22.5 10h126z M286 171h313q14 0 23.5 -9.5t9.5 -23.5q0 -9 -4.5 -16.5t-12 -12t-16.5 -4.5h-313q-13 0 -23 10t-10 23.5t10 23t23 9.5zM293 289q-13 0 -22.5 9.5t-9.5 23t9.5 23.5t22.5 10h408q14 0 23.5 -10t9.5 -23.5t-9.5 -23t-23.5 -9.5h-408zM325 683q-13 0 -23 9.5t-10 23.5v126 q0 14 10 23.5t23 9.5h37q10 23 31 37t47 14h108q25 0 46 -14t31 -37h37q14 0 23.5 -9.5t9.5 -23.5v-126q0 -14 -9.5 -23.5t-23.5 -9.5h-337zM358 809v-60h271v60h-30q-14 0 -23.5 9.5t-9.5 23.5q0 8 -5.5 13t-12.5 5h-108q-8 0 -13.5 -5t-5.5 -13q0 -14 -9.5 -23.5 t-23.5 -9.5h-30zM355 505.5q0 13.5 10 23t23 9.5h313q14 0 23.5 -9.5t9.5 -23.5q0 -9 -4.5 -16.5t-12 -12t-16.5 -4.5h-313q-13 0 -23 10t-10 23.5z" />
</font>
</defs>
</svg>
